<svg width="20" height="14" viewBox="0 0 20 14" fill="none" xmlns="http://www.w3.org/2000/svg">
<g clip-path="url(#clip0_722_2390)">
<path d="M11.74 5.93997L13.96 3.71997L15.02 4.77997L12.8 6.99997L15.02 9.21997L13.96 10.28L11.74 8.05997L9.51996 10.28L8.45996 9.21997L10.68 6.99997L8.45996 4.77997L9.51996 3.71997L11.74 5.93997Z" fill="white"/>
<path fill-rule="evenodd" clip-rule="evenodd" d="M17 0H5.44L0 7L5.45 14H17C18.6569 14 20 12.6569 20 11V3C20 1.34315 18.6569 0 17 0ZM18.5 11C18.5 11.8284 17.8284 12.5 17 12.5H6.18L1.89 7L6.18 1.5H17C17.3996 1.49734 17.7837 1.65419 18.0671 1.93579C18.3506 2.21738 18.51 2.60044 18.51 3L18.5 11Z" fill="white"/>
</g>
<defs>
<clipPath id="clip0_722_2390">
<rect width="20" height="14" fill="white"/>
</clipPath>
</defs>
</svg>
