<svg width="18" height="20" viewBox="0 0 18 20" fill="none" xmlns="http://www.w3.org/2000/svg">
<g clip-path="url(#clip0_691_2378)">
<path fill-rule="evenodd" clip-rule="evenodd" d="M18 3.75V5.25H0V3.75H4.5V3.47C4.5 1.79 5.76 0.83 7.5 0.75H10.59C12.28 0.83 13.54 1.75 13.54 3.47V3.75H18ZM13.73 16.13L14.83 6.25L16.36 6.3L15.24 16.3C15.2127 17.9373 13.8775 19.2502 12.24 19.25H5.75C4.11248 19.2502 2.77729 17.9373 2.75 16.3L1.63 6.25H3.14L4.25 16.13V16.3C4.25527 16.6899 4.41522 17.0617 4.69466 17.3336C4.97409 17.6056 5.35012 17.7553 5.74 17.75H12.24C12.6299 17.7553 13.0059 17.6056 13.2853 17.3336C13.5648 17.0617 13.7247 16.6899 13.73 16.3V16.13ZM7.69 14.64L7 8.08L5.51 8.24L6.24 14.81L7.69 14.64ZM11.8 14.81L10.31 14.64L11 8.08L12.49 8.24L11.8 14.81ZM10.51 2.25C11.5 2.31 12 2.72 12 3.47V3.75H6V3.47C6 2.72 6.5 2.31 7.51 2.25H10.51Z" fill="white"/>
</g>
<defs>
<clipPath id="clip0_691_2378">
<rect width="18" height="20" fill="white"/>
</clipPath>
</defs>
</svg>
