<svg width="32" height="32" viewBox="0 0 32 32" fill="none" xmlns="http://www.w3.org/2000/svg">
<path fill-rule="evenodd" clip-rule="evenodd" d="M32 29.7054C32 30.311 31.7596 30.8917 31.3315 31.3199C31.1196 31.5347 30.8673 31.7054 30.5891 31.8222C30.3109 31.9389 30.0124 31.9993 29.7107 32C29.4089 32.0007 29.1101 31.9414 28.8315 31.826C28.5528 31.7103 28.2997 31.5407 28.0869 31.3268L21.9884 25.2273C21.8951 25.1344 21.7727 25.0763 21.6417 25.063C21.5108 25.0498 21.3792 25.0819 21.2692 25.1542C18.4344 27.0274 15.0052 27.7813 11.6464 27.2696C8.28756 26.7579 5.23829 25.0171 3.08972 22.3848C0.941145 19.7525 -0.153703 16.4161 0.0174129 13.0223C0.188529 9.62856 1.61343 6.41923 4.01587 4.01643C6.41832 1.61365 9.6272 0.188556 13.0205 0.0174153C16.4137 -0.153724 19.7497 0.941278 22.3816 3.09016C25.0136 5.23903 26.7541 8.28873 27.2657 11.648C27.7773 15.0073 27.0236 18.437 25.1507 21.2722C25.0796 21.3832 25.0489 21.5154 25.0639 21.6464C25.0788 21.7775 25.1385 21.8994 25.2329 21.9915L31.3315 28.0909C31.7596 28.5192 32 29.0998 32 29.7054ZM6.14051 8.64556C5.13696 10.1477 4.60132 11.9137 4.60132 13.7203C4.60132 16.1429 5.56355 18.4662 7.27632 20.1793C8.98911 21.8923 11.3121 22.8547 13.7344 22.8547C15.5407 22.8547 17.3065 22.319 18.8084 21.3153C20.3104 20.3115 21.4809 18.8849 22.1723 17.2159C22.8635 15.5469 23.0444 13.7102 22.692 11.9383C22.3396 10.1664 21.4697 8.53883 20.1924 7.26137C18.9152 5.98391 17.2877 5.11395 15.5161 4.7615C13.7445 4.40905 11.9081 4.58993 10.2393 5.28129C8.57045 5.97264 7.14407 7.14342 6.14051 8.64556Z" fill="black"/>
</svg>
